<svg xmlns="http://www.w3.org/2000/svg" width="1024" height="1024"><path fill="#939393" d="M128.773 128.772C211.813 45.732 322.219 0 439.653 0s227.84 45.732 310.878 128.772c83.038 83.038 128.77 193.444 128.77 310.876 0 107.366-38.246 208.841-108.262 288.916l244.164 244.168c11.733 11.725 11.733 30.746 0 42.47a29.944 29.944 0 0 1-21.231 8.798c-7.689 0-15.377-2.935-21.231-8.798L728.569 771.036C648.495 841.05 547.019 879.3 439.653 879.3c-117.436 0-227.837-45.732-310.878-128.772C45.737 667.49.005 557.084.005 439.65s45.73-227.84 128.768-310.878zm42.472 579.286c148.001 147.998 388.811 147.998 536.813 0 147.997-148 147.997-388.814 0-536.813-74.008-74.009-171.191-111-268.407-111-97.192 0-194.416 37.01-268.408 111-147.995 147.998-147.995 388.812.003 536.813z"/></svg>