<!-- Generated by IcoMoon.io -->
<svg version="1.1" xmlns="http://www.w3.org/2000/svg" width="1024" height="1024" viewBox="0 0 1024 1024">
<g id="icomoon-ignore">
</g>
<path fill="#939393" d="M128.773 128.772c83.040-83.040 193.446-128.772 310.88-128.772s227.84 45.732 310.878 128.772c83.038 83.038 128.77 193.444 128.77 310.876 0 107.366-38.246 208.841-108.262 288.916l244.164 244.168c11.733 11.725 11.733 30.746 0 42.47-5.862 5.862-13.551 8.798-21.231 8.798-7.689 0-15.377-2.935-21.231-8.798l-244.172-244.166c-80.074 70.014-181.55 108.264-288.916 108.264-117.436 0-227.837-45.732-310.878-128.772-83.038-83.038-128.77-193.444-128.77-310.878s45.73-227.84 128.768-310.878zM171.245 708.058c148.001 147.998 388.811 147.998 536.813 0 147.997-148 147.997-388.814 0-536.813-74.008-74.009-171.191-111-268.407-111-97.192 0-194.416 37.010-268.408 111-147.995 147.998-147.995 388.812 0.003 536.813z"></path>
</svg>
